<?xml version="1.0" encoding="utf-8"?>
<!-- Generator: Adobe Illustrator 18.0.0, SVG Export Plug-In . SVG Version: 6.00 Build 0)  -->
<!DOCTYPE svg PUBLIC "-//W3C//DTD SVG 1.0//EN" "http://www.w3.org/TR/2001/REC-SVG-20010904/DTD/svg10.dtd">
<svg version="1.0" id="图层_1" xmlns="http://www.w3.org/2000/svg" xmlns:xlink="http://www.w3.org/1999/xlink" x="0px" y="0px"
	 width="600px" height="600px" viewBox="0 0 600 600" enable-background="new 0 0 600 600" xml:space="preserve">
<g>
	<path fill="#7F7F7F" d="M300.156,554.509l-8.163-6.127c-7.684-5.757-188.217-143.037-188.217-307.813
		c0-108.108,87.953-196.061,196.061-196.061s196.054,87.953,196.054,196.061c0,153.147-180.143,301.277-187.815,307.506
		L300.156,554.509z M299.836,70.651c-93.697,0-169.919,76.222-169.919,169.919c0,132.686,134.76,251.828,169.626,280.42
		c34.598-30.328,170.206-157.065,170.206-280.42C469.749,146.873,393.52,70.651,299.836,70.651z"/>
	<path fill="#7F7F7F" d="M299.824,345c-53.776,0-98.107-46.541-98.828-100.318c-0.351-26.397,9.599-55.621,28.024-74.544
		C247.439,151.215,272.125,136,298.528,136h1.347c53.77,0,98.088,49.406,98.803,103.182C399.392,293.686,355.649,345,301.151,345
		H299.824z M299.875,167.87c-20.423,0.255-38.574,8.061-52.13,21.974c-13.549,13.92-19.782,32.281-19.52,51.702
		c0.53,39.55,34.775,71.723,73.775,71.723v13.077l-0.105-13.083c40.086-0.53,71.721-33.577,71.185-73.67
		C372.557,200.043,339.412,167.87,299.875,167.87z"/>
</g>
</svg>
