<?xml version="1.0" encoding="utf-8"?>
<!-- Generator: Adobe Illustrator 18.0.0, SVG Export Plug-In . SVG Version: 6.00 Build 0)  -->
<!DOCTYPE svg PUBLIC "-//W3C//DTD SVG 1.0//EN" "http://www.w3.org/TR/2001/REC-SVG-20010904/DTD/svg10.dtd">
<svg version="1.0" id="图层_1" xmlns="http://www.w3.org/2000/svg" xmlns:xlink="http://www.w3.org/1999/xlink" x="0px" y="0px"
	 width="600px" height="600px" viewBox="0 0 600 600" enable-background="new 0 0 600 600" xml:space="preserve">
<g>
	<path fill="#7F7F7F" d="M300.001,550c-137.848,0-250-112.152-250-250s112.152-250,250-250s250,112.152,250,250
		c0,36.194-7.568,71.106-22.491,103.76c-3.586,7.828-12.817,11.292-20.706,7.706c-7.843-3.586-11.292-12.848-7.706-20.706
		c13.046-28.534,19.653-59.082,19.653-90.759c0-120.621-98.129-218.75-218.75-218.75S81.251,179.379,81.251,300
		s98.129,218.75,218.75,218.75c59.418,0,114.99-23.392,156.494-65.887c6.012-6.149,15.9-6.271,22.095-0.244
		c6.165,6.027,6.287,15.915,0.244,22.095C431.41,523.267,367.903,550,300.001,550z"/>
	
		<path fill="none" stroke="#7F7F7F" stroke-width="2" stroke-linecap="round" stroke-linejoin="round" stroke-miterlimit="22.9256" d="
		M513.303,397.259"/>
	<path fill="#7F7F7F" d="M423.673,408.078c-2.548,0-5.142-0.626-7.523-1.938l-139.203-76.828c-4.982-2.747-7.947-7.996-7.947-13.687
		v-156.25c0-8.629,6.871-15.625,15.5-15.625s15.5,6.996,15.5,15.625v147.026l131.234,72.365c7.568,4.166,10.311,13.672,6.146,21.225
		C434.526,405.164,429.182,408.078,423.673,408.078z"/>
</g>
</svg>
